<svg width="198" height="202" viewBox="0 0 198 202" fill="none" xmlns="http://www.w3.org/2000/svg">
<g clip-path="url(#clip0_37_21)">
<circle cx="99" cy="101" r="95" fill="black"/>
<path d="M48.5352 130.939L35.6768 127.494C34.6877 127.229 34.2352 126.445 34.5002 125.456L57.9554 37.92C58.2205 36.9309 59.0043 36.4783 59.9934 36.7434L74.2118 40.5532C75.0773 40.7851 75.5961 41.3216 75.7682 42.1629L93.1921 102.753L138.206 58.8929C138.775 58.2505 139.493 58.0452 140.358 58.2771L154.206 61.9875C155.195 62.2526 155.648 63.0364 155.383 64.0255L131.927 151.562C131.662 152.551 130.878 153.003 129.889 152.738L117.031 149.293C116.042 149.028 115.589 148.244 115.854 147.255L132.286 85.9301L93.7776 123.317C93.2079 123.96 92.4903 124.165 91.6248 123.933L83.2174 121.68C82.352 121.448 81.8332 120.912 81.661 120.071L66.8395 69.0563L50.5732 129.763C50.3082 130.752 49.5243 131.204 48.5352 130.939Z" fill="white"/>
<rect x="111" y="117.8" width="34" height="41" transform="rotate(-15 111 117.8)" fill="black"/>
<path d="M120.594 150.929L115.772 149.637C115.401 149.538 115.231 149.244 115.33 148.873L124.126 116.047C124.225 115.676 124.519 115.506 124.89 115.606L130.222 117.034C130.547 117.121 130.741 117.323 130.852 117.65L139.761 145.232L146.01 121.911C146.109 121.54 146.403 121.37 146.774 121.47L151.596 122.762C151.967 122.861 152.137 123.155 152.037 123.526L143.242 156.352C143.142 156.723 142.848 156.892 142.478 156.793L137.192 155.377C136.867 155.29 136.673 155.089 136.562 154.761L127.619 127.12L121.358 150.488C121.258 150.859 120.964 151.029 120.594 150.929Z" fill="#8B0000"/>
</g>
<defs>
<clipPath id="clip0_37_21">
<rect width="198" height="202" fill="white"/>
</clipPath>
</defs>
</svg>
