<svg width="100" height="100" viewBox="0 0 100 100" fill="none" xmlns="http://www.w3.org/2000/svg">
<g clip-path="url(#clip0_77_2)">
<path d="M47.8563 39.0438C48.5438 36.9813 51.4563 36.9813 52.1438 39.0438L56.175 51.15C57.0624 53.8113 58.5574 56.2293 60.5415 58.2124C62.5257 60.1955 64.9445 61.6892 67.6063 62.575L79.7063 66.6063C81.7688 67.2938 81.7688 70.2063 79.7063 70.8938L67.6 74.925C64.9388 75.8124 62.5208 77.3074 60.5377 79.2915C58.5546 81.2757 57.0609 83.6945 56.175 86.3563L52.1438 98.4563C51.9956 98.9079 51.7085 99.3012 51.3235 99.58C50.9386 99.8589 50.4754 100.009 50 100.009C49.5247 100.009 49.0615 99.8589 48.6765 99.58C48.2916 99.3012 48.0045 98.9079 47.8563 98.4563L43.825 86.35C42.9383 83.6895 41.4443 81.2719 39.4612 79.2888C37.4782 77.3058 35.0606 75.8117 32.4 74.925L20.2938 70.8938C19.8422 70.7456 19.4489 70.4585 19.17 70.0735C18.8912 69.6886 18.7411 69.2254 18.7411 68.75C18.7411 68.2747 18.8912 67.8115 19.17 67.4266C19.4489 67.0416 19.8422 66.7545 20.2938 66.6063L32.4 62.575C35.0606 61.6883 37.4782 60.1943 39.4612 58.2112C41.4443 56.2282 42.9383 53.8106 43.825 51.15L47.8563 39.0438ZM23.7125 7.17504C23.8022 6.90438 23.9748 6.66885 24.2059 6.50191C24.4371 6.33497 24.7149 6.24512 25 6.24512C25.2851 6.24512 25.563 6.33497 25.7941 6.50191C26.0253 6.66885 26.1979 6.90438 26.2875 7.17504L28.7063 14.4375C29.7875 17.675 32.325 20.2125 35.5625 21.2938L42.825 23.7125C43.0957 23.8022 43.3312 23.9748 43.4982 24.2059C43.6651 24.4371 43.755 24.7149 43.755 25C43.755 25.2852 43.6651 25.563 43.4982 25.7941C43.3312 26.0253 43.0957 26.1979 42.825 26.2875L35.5625 28.7063C33.9649 29.2365 32.5131 30.1325 31.3228 31.3228C30.1325 32.5131 29.2365 33.9649 28.7063 35.5625L26.2875 42.825C26.1979 43.0957 26.0253 43.3312 25.7941 43.4982C25.563 43.6651 25.2851 43.755 25 43.755C24.7149 43.755 24.4371 43.6651 24.2059 43.4982C23.9748 43.3312 23.8022 43.0957 23.7125 42.825L21.2938 35.5625C20.7635 33.9649 19.8676 32.5131 18.6773 31.3228C17.487 30.1325 16.0352 29.2365 14.4375 28.7063L7.17504 26.2875C6.90438 26.1979 6.66884 26.0253 6.50191 25.7941C6.33497 25.563 6.24512 25.2852 6.24512 25C6.24512 24.7149 6.33497 24.4371 6.50191 24.2059C6.66884 23.9748 6.90438 23.8022 7.17504 23.7125L14.4375 21.2938C16.0352 20.7636 17.487 19.8676 18.6773 18.6773C19.8676 17.487 20.7635 16.0352 21.2938 14.4375L23.7125 7.17504ZM67.8938 0.618791C67.9555 0.44083 68.0711 0.286515 68.2246 0.177301C68.378 0.0680863 68.5617 0.00939941 68.75 0.00939941C68.9384 0.00939941 69.1221 0.0680863 69.2755 0.177301C69.429 0.286515 69.5446 0.44083 69.6063 0.618791L71.2188 5.45629C71.9375 7.61879 73.6313 9.31254 75.7938 10.0313L80.6313 11.6438C80.8092 11.7055 80.9636 11.8211 81.0728 11.9746C81.182 12.128 81.2407 12.3117 81.2407 12.5C81.2407 12.6884 81.182 12.8721 81.0728 13.0255C80.9636 13.179 80.8092 13.2946 80.6313 13.3563L75.7938 14.9688C74.729 15.325 73.7616 15.9237 72.9676 16.7176C72.1737 17.5116 71.575 18.479 71.2188 19.5438L69.6063 24.3813C69.5446 24.5593 69.429 24.7136 69.2755 24.8228C69.1221 24.932 68.9384 24.9907 68.75 24.9907C68.5617 24.9907 68.378 24.932 68.2246 24.8228C68.0711 24.7136 67.9555 24.5593 67.8938 24.3813L66.2813 19.5438C65.925 18.479 65.3264 17.5116 64.5324 16.7176C63.7385 15.9237 62.771 15.325 61.7063 14.9688L56.875 13.3563C56.6971 13.2946 56.5428 13.179 56.4335 13.0255C56.3243 12.8721 56.2656 12.6884 56.2656 12.5C56.2656 12.3117 56.3243 12.128 56.4335 11.9746C56.5428 11.8211 56.6971 11.7055 56.875 11.6438L61.7125 10.0313C63.875 9.31254 65.5688 7.61879 66.2875 5.45629L67.8938 0.618791Z" fill="#8EC5FF"/>
</g>
<defs>
<clipPath id="clip0_77_2">
<rect width="100" height="100" fill="white"/>
</clipPath>
</defs>
</svg>
