<svg width="100" height="100" viewBox="0 0 100 100" fill="none" xmlns="http://www.w3.org/2000/svg">
<path d="M58.0813 0H25C21.6848 0 18.5054 1.31696 16.1612 3.66117C13.817 6.00537 12.5 9.18479 12.5 12.5V87.5C12.5 90.8152 13.817 93.9946 16.1612 96.3388C18.5054 98.683 21.6848 100 25 100H75C78.3152 100 81.4946 98.683 83.8388 96.3388C86.183 93.9946 87.5 90.8152 87.5 87.5V29.4187C87.4996 27.7613 86.8409 26.1718 85.6687 25L62.5 1.83125C61.3282 0.659067 59.7387 0.000353984 58.0813 0ZM59.375 21.875V9.375L78.125 28.125H65.625C63.9674 28.125 62.3777 27.4665 61.2056 26.2944C60.0335 25.1223 59.375 23.5326 59.375 21.875ZM41.5375 47.7875C41.828 47.4969 42.173 47.2665 42.5526 47.1092C42.9322 46.952 43.3391 46.8711 43.75 46.8711C44.1609 46.8711 44.5678 46.952 44.9474 47.1092C45.327 47.2665 45.672 47.4969 45.9625 47.7875C46.2531 48.078 46.4835 48.423 46.6408 48.8026C46.798 49.1822 46.8789 49.5891 46.8789 50C46.8789 50.4109 46.798 50.8178 46.6408 51.1974C46.4835 51.577 46.2531 51.922 45.9625 52.2125L35.6687 62.5L45.9625 72.7875C46.5493 73.3743 46.8789 74.1702 46.8789 75C46.8789 75.8298 46.5493 76.6257 45.9625 77.2125C45.3757 77.7993 44.5798 78.1289 43.75 78.1289C42.9202 78.1289 42.1243 77.7993 41.5375 77.2125L29.0375 64.7125C28.7465 64.4222 28.5156 64.0774 28.358 63.6977C28.2005 63.3181 28.1194 62.911 28.1194 62.5C28.1194 62.089 28.2005 61.6819 28.358 61.3023C28.5156 60.9226 28.7465 60.5778 29.0375 60.2875L41.5375 47.7875ZM58.4625 47.7875L70.9625 60.2875C71.2535 60.5778 71.4844 60.9226 71.642 61.3023C71.7995 61.6819 71.8806 62.089 71.8806 62.5C71.8806 62.911 71.7995 63.3181 71.642 63.6977C71.4844 64.0774 71.2535 64.4222 70.9625 64.7125L58.4625 77.2125C57.8757 77.7993 57.0798 78.1289 56.25 78.1289C55.4202 78.1289 54.6243 77.7993 54.0375 77.2125C53.4507 76.6257 53.1211 75.8298 53.1211 75C53.1211 74.1702 53.4507 73.3743 54.0375 72.7875L64.3313 62.5L54.0375 52.2125C53.7469 51.922 53.5165 51.577 53.3592 51.1974C53.202 50.8178 53.1211 50.4109 53.1211 50C53.1211 49.5891 53.202 49.1822 53.3592 48.8026C53.5165 48.423 53.7469 48.078 54.0375 47.7875C54.328 47.4969 54.673 47.2665 55.0526 47.1092C55.4322 46.952 55.8391 46.8711 56.25 46.8711C56.6609 46.8711 57.0678 46.952 57.4474 47.1092C57.827 47.2665 58.172 47.4969 58.4625 47.7875Z" fill="white"/>
</svg>
