<svg width="14" height="14" viewBox="0 0 14 14" fill="none" xmlns="http://www.w3.org/2000/svg">
<path d="M1.5 0C0.671875 0 0 0.671875 0 1.5V12.5C0 13.3281 0.671875 14 1.5 14H12.5C13.3281 14 14 13.3281 14 12.5V1.5C14 0.671875 13.3281 0 12.5 0H1.5ZM4.59 4.16356C5.20363 4.16356 5.74881 4.37572 6.15028 4.69391C6.52153 4.98928 6.69541 5.28475 6.84709 5.54994L5.787 6.07959C5.71116 5.90569 5.61991 5.72375 5.38556 5.52703C5.12781 5.32228 4.87062 5.26191 4.65044 5.26191C3.78712 5.26191 3.33262 6.06481 3.33262 6.95837C3.33262 8.13253 3.93141 8.71525 4.65044 8.71525C5.34731 8.71525 5.62787 8.23056 5.80919 7.92041L6.8625 8.45813C6.66516 8.76831 6.47581 9.07172 6.05156 9.36653C5.82462 9.52559 5.30228 9.83644 4.55981 9.83644C3.14331 9.83644 2 8.80656 2 6.99594C2 5.41356 3.07547 4.16356 4.59 4.16356ZM6.94884 4.33003H8.37275L9.47844 8.1325L10.5761 4.33006H12L10.1444 9.67731H8.78156L6.94884 4.33003Z" fill="white"/>
</svg>
