<svg width="19" height="21" viewBox="0 0 19 21" fill="none" xmlns="http://www.w3.org/2000/svg">
<path d="M10.0929 19.7579L10.0819 19.7599L10.0109 19.7949L9.99093 19.7989L9.97693 19.7949L9.90593 19.7599C9.89526 19.7566 9.88726 19.7583 9.88193 19.7649L9.87793 19.7749L9.86093 20.2029L9.86593 20.2229L9.87593 20.2359L9.97993 20.3099L9.99493 20.3139L10.0069 20.3099L10.1109 20.2359L10.1229 20.2199L10.1269 20.2029L10.1099 19.7759C10.1073 19.7653 10.1016 19.7593 10.0929 19.7579ZM10.3579 19.6449L10.3449 19.6469L10.1599 19.7399L10.1499 19.7499L10.1469 19.7609L10.1649 20.1909L10.1699 20.2029L10.1779 20.2099L10.3789 20.3029C10.3916 20.3063 10.4013 20.3036 10.4079 20.2949L10.4119 20.2809L10.3779 19.6669C10.3746 19.6549 10.3679 19.6476 10.3579 19.6449ZM9.64293 19.6469C9.63852 19.6443 9.63325 19.6434 9.62822 19.6445C9.62319 19.6456 9.61879 19.6487 9.61593 19.6529L9.60993 19.6669L9.57593 20.2809C9.57659 20.2929 9.58226 20.3009 9.59293 20.3049L9.60793 20.3029L9.80893 20.2099L9.81893 20.2019L9.82293 20.1909L9.83993 19.7609L9.83693 19.7489L9.82693 19.7389L9.64293 19.6469Z" fill="white"/>
<path d="M17.5 14C17.8852 14.0002 18.2556 14.1486 18.5344 14.4144C18.8132 14.6802 18.979 15.0431 18.9975 15.4279C19.016 15.8127 18.8858 16.1898 18.6338 16.4812C18.3818 16.7726 18.0274 16.9558 17.644 16.993L17.5 17H1.5C1.11478 16.9998 0.744405 16.8514 0.465613 16.5856C0.186821 16.3198 0.020988 15.9569 0.00247574 15.5721C-0.0160365 15.1873 0.114192 14.8102 0.366175 14.5188C0.618159 14.2274 0.972581 14.0442 1.356 14.007L1.5 14H17.5ZM17.5 7C17.8978 7 18.2794 7.15804 18.5607 7.43934C18.842 7.72064 19 8.10218 19 8.5C19 8.89782 18.842 9.27936 18.5607 9.56066C18.2794 9.84196 17.8978 10 17.5 10H1.5C1.10218 10 0.720644 9.84196 0.43934 9.56066C0.158035 9.27936 0 8.89782 0 8.5C0 8.10218 0.158035 7.72064 0.43934 7.43934C0.720644 7.15804 1.10218 7 1.5 7H17.5ZM17.5 0C17.8978 0 18.2794 0.158035 18.5607 0.43934C18.842 0.720644 19 1.10218 19 1.5C19 1.89782 18.842 2.27936 18.5607 2.56066C18.2794 2.84196 17.8978 3 17.5 3H1.5C1.10218 3 0.720644 2.84196 0.43934 2.56066C0.158035 2.27936 0 1.89782 0 1.5C0 1.10218 0.158035 0.720644 0.43934 0.43934C0.720644 0.158035 1.10218 0 1.5 0H17.5Z" fill="white"/>
</svg>
